# xmcd
#
# Track frame offsets:
#	150
#	12145
#	23597
#	39800
#	56430
#	69670
#	84742
#	100242
#	118470
#	127612
#	137987
#	157020
#	170367
#	187950
#
# Disc length: 2766 seconds
#
# Revision: 1
# Processed by: cddbd v1.5.1PL2 Copyright (c) Steve Scherf et al.
# Submitted via: audiograbber 1.83.01
#
DISCID=b00acc0e
DTITLE=Various Artist - Great Soul Ballads CD 3
DYEAR=1997
DGENRE=Soul
TTITLE0=The Impressions - People get ready
TTITLE1=Maxine Brown - All in my mind
TTITLE2=Harold Melvin and The Blue Notes - Wake up everybody (Part 1)
TTITLE3=Marvin Gaye - Come get to this (live)
TTITLE4=The Three Degrees - When will i see you again
TTITLE5=Latimore - Let´s straighten it out
TTITLE6=Clarence Carter - You don´t have to say you love me
TTITLE7=Brook Benton - Rainy night in Georgia (white)
TTITLE8=Gladys Knight and The Pips - Every beat of my heart
TTITLE9=Chuck Jackson - I wake up crying
TTITLE10=Ohio Players - Over the rainbow
TTITLE11=The Winstons - Color him Father
TTITLE12=Percy Sledge - (If loving you is wrong) I don´t want to be right
TTITLE13=Al Jarreau - Lean on me
EXTD=Goldies
EXTT0=
EXTT1=
EXTT2=
EXTT3=
EXTT4=
EXTT5=
EXTT6=
EXTT7=
EXTT8=
EXTT9=
EXTT10=
EXTT11=
EXTT12=
EXTT13=
PLAYORDER=
